<svg width="59" height="87" viewBox="0 0 59 87" fill="none" xmlns="http://www.w3.org/2000/svg">
<path fill-rule="evenodd" clip-rule="evenodd" d="M30 0C22.4521 0 16.3333 6.11878 16.3333 13.6667V56.022C16.0574 56.0074 15.7796 56 15.5 56C6.93959 56 0 62.9396 0 71.5C0 80.0604 6.93959 87 15.5 87C21.5418 87 26.7762 83.5432 29.3333 78.4994C31.8904 83.5432 37.1249 87 43.1667 87C51.7271 87 58.6667 80.0604 58.6667 71.5C58.6667 63.1069 51.9957 56.2719 43.6667 56.0079V13.6667C43.6667 6.11877 37.5479 0 30 0Z" fill="white"/>
</svg>
