<svg preserveaspectratio="xMidYMid meet" xmlns="http://www.w3.org/2000/svg" xmlns:xlink="http://www.w3.org/1999/xlink" width="375" height="344" viewBox="0 0 375 344">
    <path
        id="motionPath"
        fill="none"
        stroke="#000000"
        stroke-width="0"
        stroke-miterlimit="10"
        d="M 190 187 L 190 187 C 197.012 155.905 221.451 131.717 252.616 125.027 L 279.365 119.286 C 290.734 116.845 300.832 110.363 307.785 101.043 L 312.258 95.0479 C 317.507 88.0119 319.542 79.0871 317.863 70.471 L 317.517 68.6977 C 313.451 47.8342 289.537 37.7436 271.754 49.3875 L 271.754 49.3875 C 268.613 51.4441 265.113 52.8913 261.436 53.6535 L 244.149 57.2373 C 232.118 59.7317 219.78 60.4076 207.548 59.2427 L 194.5 58"
    ></path>
    <g id="car" style="transform: rotate(90deg) translateX(-10px) translateY(0px);">
        <path
            id="fuck"
            fill-opacity="0.5"
            d="M30 0C22.4521 0 16.3333 6.11878 16.3333 13.6667V56.022C16.0574 56.0074 15.7796 56 15.5 56C6.93959 56 0 62.9396 0 71.5C0 80.0604 6.93959 87 15.5 87C21.5418 87 26.7762 83.5432 29.3333 78.4994C31.8904 83.5432 37.1249 87 43.1667 87C51.7271 87 58.6667 80.0604 58.6667 71.5C58.6667 63.1069 51.9957 56.2719 43.6667 56.0079V13.6667C43.6667 6.11877 37.5479 0 30 0Z"
            fill="white"
        >
            <animateTransform xlink:href="#fuck" attributeName="transform" type="scale" values="0.5;0.3" dur="0.8s" fill="freeze"></animateTransform>
            <animate xlink:href="#fuck" attributeName="opacity" attributeType="CSS" values="0.8;1;1;1;1;1;0.9;0" begin="0s" dur="0.8s" fill="freeze"></animate>
        </path>
    </g>
    <animateMotion rotate="auto" xlink:href="#car" dur="0.8s" begin="0s" fill="freeze"><mpath xlink:href="#motionPath"></mpath></animateMotion>
</svg>
