<svg preserveaspectratio="xMidYMid meet" xmlns="http://www.w3.org/2000/svg" xmlns:xlink="http://www.w3.org/1999/xlink" width="375" height="344" viewBox="0 0 375 344">
    <path
        id="motionPath"
        fill="none"
        stroke="#000000"
        stroke-width="0"
        stroke-miterlimit="10"
        d="M 177 193 L 177 193 C 172.177 160.743 148.052 134.753 116.243 127.545 L 84.1636 120.276 C 73.409 117.839 63.8771 111.644 57.2832 102.805 L 54.6246 99.2415 C 47.908 90.2384 45.6402 78.6736 48.4591 67.8006 L 48.4591 67.8006 C 53.6875 47.6337 74.5152 35.7458 94.5386 41.4996 L 101.5 43.5 L 101.5 43.5 C 124.316 50.4439 148.19 53.2475 171.994 51.7781 L 176.5 51.5"
    ></path>
    <g id="car" style="transform: rotate(90deg) translateX(-10px) translateY(0px);">
        <path
            id="fuck"
            fill-opacity="0.5"
            d="M30 0C22.4521 0 16.3333 6.11878 16.3333 13.6667V56.022C16.0574 56.0074 15.7796 56 15.5 56C6.93959 56 0 62.9396 0 71.5C0 80.0604 6.93959 87 15.5 87C21.5418 87 26.7762 83.5432 29.3333 78.4994C31.8904 83.5432 37.1249 87 43.1667 87C51.7271 87 58.6667 80.0604 58.6667 71.5C58.6667 63.1069 51.9957 56.2719 43.6667 56.0079V13.6667C43.6667 6.11877 37.5479 0 30 0Z"
            fill="white"
        >
            <animateTransform xlink:href="#fuck" attributeName="transform" type="scale" values="0.5;0.3" dur="0.8s" fill="freeze"></animateTransform>
            <animate xlink:href="#fuck" attributeName="opacity" attributeType="CSS" values="0.8;1;1;1;1;1;0.9;0" begin="0s" dur="0.8s" fill="freeze"></animate>
        </path>
    </g>
    <animateMotion rotate="auto" xlink:href="#car" dur="0.8s" begin="0s" fill="freeze"><mpath xlink:href="#motionPath"></mpath></animateMotion>
</svg>
