<svg preserveaspectratio="xMidYMid meet" xmlns="http://www.w3.org/2000/svg" xmlns:xlink="http://www.w3.org/1999/xlink" width="375" height="344" viewBox="0 0 375 344">
    <path
        id="motionPath"
        fill="none"
        stroke="#000000"
        stroke-width="0"
        stroke-miterlimit="10"
        d="M 190 187 L 190 187 C 197.012 155.905 221.451 131.717 252.616 125.027 L 279.365 119.286 C 290.734 116.845 300.832 110.363 307.785 101.043 L 312.258 95.0479 C 317.507 88.0119 319.542 79.0871 317.863 70.471 L 317.517 68.6977 C 313.451 47.8342 289.537 37.7436 271.754 49.3875 L 271.754 49.3875 C 268.613 51.4441 265.113 52.8913 261.436 53.6535 L 244.149 57.2373 C 232.118 59.7317 219.78 60.4076 207.548 59.2427 L 194.5 58"
    ></path>
    <g id="car" style="transform: rotate(90deg) translateX(-10px) translateY(0px);">
        <path
            id="fuck"
            fill-opacity="0.5"
            d="M39.5 17.687C39.5 6.64135 30.6569 -6.73934e-06 19.75 -6.73934e-06C8.84314 -6.73934e-06 0 8.95431 0 20V20C0 23.2891 0.757448 26.5341 2.21362 29.4833L2.91745 30.9088C4.25547 33.6187 6.01994 36.0961 8.1435 38.2466L38.7998 69.291C39.1851 69.6811 39.8149 69.6811 40.2002 69.291L70.8565 38.2466C72.9801 36.0961 74.7445 33.6187 76.0825 30.9088L76.7864 29.4833C78.2426 26.5341 79 23.2891 79 20V20C79 8.95431 70.1569 -6.73934e-06 59.25 -6.73934e-06C48.3431 -6.73934e-06 39.5 6.64135 39.5 17.687Z"
            fill="white"
        >
            <animateTransform xlink:href="#fuck" attributeName="transform" type="scale" values="0.5;0.3" dur="0.8s" fill="freeze"></animateTransform>
            <animate xlink:href="#fuck" attributeName="opacity" attributeType="CSS" values="0.8;1;1;1;1;1;0.9;0" begin="0s" dur="0.8s" fill="freeze"></animate>
        </path>
    </g>
    <animateMotion rotate="auto" xlink:href="#car" dur="0.8s" begin="0s" fill="freeze"><mpath xlink:href="#motionPath"></mpath></animateMotion>
</svg>
