<svg preserveaspectratio="xMidYMid meet" xmlns="http://www.w3.org/2000/svg" xmlns:xlink="http://www.w3.org/1999/xlink" width="375" height="344" viewBox="0 0 375 344">
    <path
        id="motionPath"
        fill="none"
        stroke="#000000"
        stroke-width="0"
        stroke-miterlimit="10"
        d="M 197.5 192.5 L 197.5 192.5 C 202.323 160.243 226.448 134.253 258.257 127.045 L 290.336 119.776 C 301.091 117.339 310.623 111.144 317.217 102.305 L 319.875 98.7415 C 326.592 89.7384 328.86 78.1736 326.041 67.3006 L 326.041 67.3006 C 320.812 47.1337 299.985 35.2458 279.961 40.9996 L 273 43 L 273 43 C 250.184 49.9439 226.31 52.7475 202.506 51.2781 L 198 51"
    ></path>
    <g id="car" style="transform: rotate(90deg) translateX(-10px) translateY(0px);">
        <path
            id="fuck"
            fill-opacity="0.5"
            d="M39.5 17.687C39.5 6.64135 30.6569 -6.73934e-06 19.75 -6.73934e-06C8.84314 -6.73934e-06 0 8.95431 0 20V20C0 23.2891 0.757448 26.5341 2.21362 29.4833L2.91745 30.9088C4.25547 33.6187 6.01994 36.0961 8.1435 38.2466L38.7998 69.291C39.1851 69.6811 39.8149 69.6811 40.2002 69.291L70.8565 38.2466C72.9801 36.0961 74.7445 33.6187 76.0825 30.9088L76.7864 29.4833C78.2426 26.5341 79 23.2891 79 20V20C79 8.95431 70.1569 -6.73934e-06 59.25 -6.73934e-06C48.3431 -6.73934e-06 39.5 6.64135 39.5 17.687Z"
            fill="white"
        >
            <animateTransform xlink:href="#fuck" attributeName="transform" type="scale" values="0.5;0.3" dur="0.8s" fill="freeze"></animateTransform>
            <animate xlink:href="#fuck" attributeName="opacity" attributeType="CSS" values="0.8;1;1;1;1;1;0.9;0" begin="0s" dur="0.8s" fill="freeze"></animate>
        </path>
    </g>
    <animateMotion rotate="auto" xlink:href="#car" dur="0.8s" begin="0s" fill="freeze"><mpath xlink:href="#motionPath"></mpath></animateMotion>
</svg>
