<svg width="288" height="287" viewBox="0 0 288 287" fill="none" xmlns="http://www.w3.org/2000/svg">
<circle cx="54.5" cy="54.5" r="54.5" fill="#F68A8A"/>
<circle cx="233.5" cy="72.5" r="54.5" fill="#F68A8A"/>
<circle cx="153.5" cy="232.5" r="54.5" fill="#F68A8A"/>
<path fill-rule="evenodd" clip-rule="evenodd" d="M207.396 224.412C198.773 166.95 208.224 148.048 259.367 120.47L179.604 80.5885C188.227 138.05 178.776 156.952 127.633 184.53L207.396 224.412Z" fill="#F68A8A"/>
<path fill-rule="evenodd" clip-rule="evenodd" d="M177.236 183.44C113.771 152.736 101.308 130.327 108.7 60.2139L30.7644 103.56C94.2286 134.264 106.692 156.673 99.3003 226.786L177.236 183.44Z" fill="#F68A8A"/>
<path fill-rule="evenodd" clip-rule="evenodd" d="M206.781 24.9991C155.695 53.735 134.484 51.6021 90.1419 13.27L81.2192 102.001C132.305 73.2649 153.516 75.3978 197.858 113.73L206.781 24.9991Z" fill="#F68A8A"/>
</svg>
