<svg width="326" height="451" viewBox="0 0 326 451" fill="none" xmlns="http://www.w3.org/2000/svg">
<circle cx="260.831" cy="62.8343" r="62.5" transform="rotate(89.6927 260.831 62.8343)" fill="#F68A8A"/>
<circle cx="159.632" cy="212.379" r="62.5" transform="rotate(89.6927 159.632 212.379)" fill="#F68A8A"/>
<circle cx="154.571" cy="387.409" r="62.5" transform="rotate(89.6927 154.571 387.409)" fill="#F68A8A"/>
<circle cx="63.5047" cy="188.895" r="62.5" transform="rotate(89.6927 63.5047 188.895)" fill="#F68A8A"/>
<path fill-rule="evenodd" clip-rule="evenodd" d="M32.012 242.88C95.2961 279.797 106.407 304.017 93.1088 376.065L186.063 333.423C122.779 296.506 111.669 272.286 124.967 200.238L32.012 242.88Z" fill="#F68A8A"/>
<path fill-rule="evenodd" clip-rule="evenodd" d="M70.7783 250.97C98.2693 247.749 101.646 248.573 124.555 264.108L152.358 150.304C124.867 153.525 121.49 152.7 98.5816 137.166L70.7783 250.97Z" fill="#F68A8A"/>
<path fill-rule="evenodd" clip-rule="evenodd" d="M121.319 212.639C152.144 137.582 177.013 121.695 258.075 125.273L203.017 39.0901C172.192 114.147 147.322 130.034 66.2613 126.455L121.319 212.639Z" fill="#F68A8A"/>
<path fill-rule="evenodd" clip-rule="evenodd" d="M206.722 352.964C178.277 309.896 178.82 291.132 209.706 249.78L107.48 246.824C135.925 289.892 135.383 308.656 104.496 350.008L206.722 352.964Z" fill="#F68A8A"/>
<path fill-rule="evenodd" clip-rule="evenodd" d="M214.349 369.164C187.639 281.65 224.953 167.673 298.246 112.898L201.054 81.0787C227.763 168.593 190.449 282.57 117.156 337.345L214.349 369.164Z" fill="#F68A8A"/>
<path fill-rule="evenodd" clip-rule="evenodd" d="M222.122 211.274C221.161 156.936 232.239 140.566 283.039 121.256L198.341 63.9395C199.302 118.277 188.224 134.647 137.424 153.958L222.122 211.274Z" fill="#F68A8A"/>
</svg>
