<svg preserveaspectratio="xMidYMid meet" xmlns="http://www.w3.org/2000/svg" xmlns:xlink="http://www.w3.org/1999/xlink" width="375" height="344" viewBox="0 0 375 344">
    <path
        id="motionPath"
        fill="none"
        stroke="#000000"
        stroke-width="0"
        stroke-miterlimit="10"
        d="M 185 193 L 181.549 169.921 C 178.697 150.851 166.734 134.367 149.488 125.744 L 149.488 125.744 C 145.839 123.92 142.011 122.477 138.066 121.44 L 81.5439 106.585 C 72.106 104.105 65.04 96.26 63.5562 86.6151 L 63.5562 86.6151 C 63.1874 84.2183 63.1766 81.7801 63.5239 79.3801 L 63.7105 78.0909 C 66.3508 59.8491 83.3353 47.2425 101.56 49.9975 L 111.5 51.5 L 111.5 51.5 C 132.84 57.4095 155.304 57.9879 176.92 53.1844 L 184.5 51.5"
    ></path>
    <g id="car" style="transform: rotate(90deg) translateX(-10px) translateY(0px);">
        <path
            id="fuck"
            fill-opacity="0.5"
            d="M30 0C22.4521 0 16.3333 6.11878 16.3333 13.6667V56.022C16.0574 56.0074 15.7796 56 15.5 56C6.93959 56 0 62.9396 0 71.5C0 80.0604 6.93959 87 15.5 87C21.5418 87 26.7762 83.5432 29.3333 78.4994C31.8904 83.5432 37.1249 87 43.1667 87C51.7271 87 58.6667 80.0604 58.6667 71.5C58.6667 63.1069 51.9957 56.2719 43.6667 56.0079V13.6667C43.6667 6.11877 37.5479 0 30 0Z"
            fill="white"
        >
            <animateTransform xlink:href="#fuck" attributeName="transform" type="scale" values="0.5;0.3" dur="0.8s" fill="freeze"></animateTransform>
            <animate xlink:href="#fuck" attributeName="opacity" attributeType="CSS" values="0.8;1;1;1;1;1;0.9;0" begin="0s" dur="0.8s" fill="freeze"></animate>
        </path>
    </g>
    <animateMotion rotate="auto" xlink:href="#car" dur="0.8s" begin="0s" fill="freeze"><mpath xlink:href="#motionPath"></mpath></animateMotion>
</svg>
