<svg preserveaspectratio="xMidYMid meet" xmlns="http://www.w3.org/2000/svg" xmlns:xlink="http://www.w3.org/1999/xlink" width="375" height="344" viewBox="0 0 375 344">
    <path
        id="motionPath"
        fill="none"
        stroke="#000000"
        stroke-width="0"
        stroke-miterlimit="10"
        d="M 185 193 L 181.549 169.921 C 178.697 150.851 166.734 134.367 149.488 125.744 L 149.488 125.744 C 145.839 123.92 142.011 122.477 138.066 121.44 L 81.5439 106.585 C 72.106 104.105 65.04 96.26 63.5562 86.6151 L 63.5562 86.6151 C 63.1874 84.2183 63.1766 81.7801 63.5239 79.3801 L 63.7105 78.0909 C 66.3508 59.8491 83.3353 47.2425 101.56 49.9975 L 111.5 51.5 L 111.5 51.5 C 132.84 57.4095 155.304 57.9879 176.92 53.1844 L 184.5 51.5"
    ></path>
    <g id="car" style="transform: rotate(90deg) translateX(-10px) translateY(0px);">
        <path
            id="fuck"
            fill-opacity="0.5"
            d="M39.5 17.687C39.5 6.64135 30.6569 -6.73934e-06 19.75 -6.73934e-06C8.84314 -6.73934e-06 0 8.95431 0 20V20C0 23.2891 0.757448 26.5341 2.21362 29.4833L2.91745 30.9088C4.25547 33.6187 6.01994 36.0961 8.1435 38.2466L38.7998 69.291C39.1851 69.6811 39.8149 69.6811 40.2002 69.291L70.8565 38.2466C72.9801 36.0961 74.7445 33.6187 76.0825 30.9088L76.7864 29.4833C78.2426 26.5341 79 23.2891 79 20V20C79 8.95431 70.1569 -6.73934e-06 59.25 -6.73934e-06C48.3431 -6.73934e-06 39.5 6.64135 39.5 17.687Z"
            fill="white"
        >
            <animateTransform xlink:href="#fuck" attributeName="transform" type="scale" values="0.5;0.3" dur="0.8s" fill="freeze"></animateTransform>
            <animate xlink:href="#fuck" attributeName="opacity" attributeType="CSS" values="0.8;1;1;1;1;1;0.9;0" begin="0s" dur="0.8s" fill="freeze"></animate>
        </path>
    </g>
    <animateMotion rotate="auto" xlink:href="#car" dur="0.8s" begin="0s" fill="freeze"><mpath xlink:href="#motionPath"></mpath></animateMotion>
</svg>
