<svg preserveaspectratio="xMidYMid meet" xmlns="http://www.w3.org/2000/svg" xmlns:xlink="http://www.w3.org/1999/xlink" width="375" height="344" viewBox="0 0 375 344">
    <path
        id="motionPath"
        fill="none"
        stroke="#000000"
        stroke-width="0"
        stroke-miterlimit="10"
        d="M 177 193 L 177 193 C 172.177 160.743 148.052 134.753 116.243 127.545 L 84.1636 120.276 C 73.409 117.839 63.8771 111.644 57.2832 102.805 L 54.6246 99.2415 C 47.908 90.2384 45.6402 78.6736 48.4591 67.8006 L 48.4591 67.8006 C 53.6875 47.6337 74.5152 35.7458 94.5386 41.4996 L 101.5 43.5 L 101.5 43.5 C 124.316 50.4439 148.19 53.2475 171.994 51.7781 L 176.5 51.5"
    ></path>
    <g id="car" style="transform: rotate(90deg) translateX(-10px) translateY(0px);">
        <path
            id="fuck"
            fill-opacity="0.5"
            d="M39.5 17.687C39.5 6.64135 30.6569 -6.73934e-06 19.75 -6.73934e-06C8.84314 -6.73934e-06 0 8.95431 0 20V20C0 23.2891 0.757448 26.5341 2.21362 29.4833L2.91745 30.9088C4.25547 33.6187 6.01994 36.0961 8.1435 38.2466L38.7998 69.291C39.1851 69.6811 39.8149 69.6811 40.2002 69.291L70.8565 38.2466C72.9801 36.0961 74.7445 33.6187 76.0825 30.9088L76.7864 29.4833C78.2426 26.5341 79 23.2891 79 20V20C79 8.95431 70.1569 -6.73934e-06 59.25 -6.73934e-06C48.3431 -6.73934e-06 39.5 6.64135 39.5 17.687Z"
            fill="white"
        >
            <animateTransform xlink:href="#fuck" attributeName="transform" type="scale" values="0.5;0.3" dur="0.8s" fill="freeze"></animateTransform>
            <animate xlink:href="#fuck" attributeName="opacity" attributeType="CSS" values="0.8;1;1;1;1;1;0.9;0" begin="0s" dur="0.8s" fill="freeze"></animate>
        </path>
    </g>
    <animateMotion rotate="auto" xlink:href="#car" dur="0.8s" begin="0s" fill="freeze"><mpath xlink:href="#motionPath"></mpath></animateMotion>
</svg>
