<svg width="357" height="357" viewBox="0 0 357 357" fill="none" xmlns="http://www.w3.org/2000/svg">
<circle cx="94.5" cy="94.5" r="94.5" fill="#F68A8A"/>
<circle cx="291.5" cy="160.5" r="65.5" fill="#F68A8A"/>
<circle cx="138.5" cy="291.5" r="65.5" fill="#F68A8A"/>
<path fill-rule="evenodd" clip-rule="evenodd" d="M189.669 332.391C244.878 263.304 247.258 261.266 324.022 217.355L240.331 119.609C185.122 188.696 182.742 190.734 105.978 234.645L189.669 332.391Z" fill="#F68A8A"/>
<path fill-rule="evenodd" clip-rule="evenodd" d="M201.424 273.312C182.068 206.347 178.967 203.632 188.568 103.522L13.2097 142.689C64.4933 229.2 62.8412 232.976 73.817 301.813L201.424 273.312Z" fill="#F68A8A"/>
<path fill-rule="evenodd" clip-rule="evenodd" d="M308.213 97.1681C238.457 78.7599 234.352 80.1625 150.556 18.4209L93.4094 188.994C197.488 190.195 199.92 193.788 266.687 221.118L308.213 97.1681Z" fill="#F68A8A"/>
</svg>
