<svg width="234" height="268" viewBox="0 0 234 268" fill="none" xmlns="http://www.w3.org/2000/svg">
<path fill-rule="evenodd" clip-rule="evenodd" d="M128.271 63.1681C129.866 60.9632 131.217 58.5268 132.268 55.8822C139.103 38.6896 130.707 19.2112 113.514 12.3761C96.3215 5.54096 76.8431 13.9374 70.008 31.1301C64.7295 44.4073 68.5349 59.0477 78.4603 68.1755C94.7025 83.9455 103.49 104.81 71.8383 134.479C64.5091 140.996 58.5492 149.278 54.6788 159.014C41.4166 192.373 57.7082 230.167 91.0672 243.429C124.426 256.691 162.22 240.399 175.482 207.04C187.497 176.82 175.257 142.96 148.046 126.996C110.928 104.124 115.432 81.8781 128.271 63.1681Z" fill="#F78A8A"/>
</svg>
