<svg width="575" height="581" viewBox="0 0 575 581" fill="none" xmlns="http://www.w3.org/2000/svg">
<path fill-rule="evenodd" clip-rule="evenodd" d="M230.39 157.715C231.937 159.498 233.394 161.328 234.762 163.201C293.052 241.311 322.026 256.149 426.368 235.167C457.923 228.171 492.216 238.247 514.885 264.376C547.819 302.339 543.743 359.812 505.78 392.747C480.543 414.641 446.684 420.179 417.143 410.279C334.758 384.323 313.527 397.555 270.098 444.311C268.286 446.316 266.333 448.233 264.24 450.049C236.29 474.297 193.974 471.296 169.725 443.345C154.749 426.082 150.167 403.339 155.438 382.757C167.159 334.306 164.456 316.374 116.75 277.652C112.556 274.384 108.616 270.664 105 266.496C74.9607 231.871 78.6786 179.45 113.304 149.411C147.929 119.372 200.35 123.089 230.39 157.715ZM234.006 287.604C232.83 307.067 239.263 320.659 253.394 336.937C284.011 341.091 305.116 339.116 327.652 321.556C299.812 294.356 273.485 285.758 234.006 287.604Z" fill="#F78A8A"/>
</svg>
