<svg width="469" height="269" viewBox="0 0 469 269" fill="none" xmlns="http://www.w3.org/2000/svg">
<mask id="mask0" mask-type="alpha" maskUnits="userSpaceOnUse" x="0" y="0" width="469" height="269">
<path fill-rule="evenodd" clip-rule="evenodd" d="M469 111C469 172.304 419.304 222 358 222C339.298 222 321.675 217.375 306.215 209.205C228.314 170.343 196.091 184.582 152.886 237.062C137.12 256.544 113.015 269 86 269C38.5035 269 0 230.496 0 183C0 135.504 38.5035 97 86 97C97.486 97 108.446 99.2517 118.463 103.338C181.398 127.156 216.334 123.164 264.659 50.9047C284.419 20.2773 318.841 0 358 0C419.304 0 469 49.6964 469 111Z" fill="#C4C4C4"/>
</mask>
<g mask="url(#mask0)">
<rect x="-32" y="-30" width="502" height="329" fill="#F78A8A"/>
</g>
</svg>
